<svg width="15" height="20" viewBox="0 0 15 20" fill="none" xmlns="http://www.w3.org/2000/svg">
<rect x="2.65228" y="13.6355" width="9.69531" height="0.807943" fill="#342E2E"/>
<rect x="1.03662" y="6.36415" width="0.807943" height="0.807943" transform="rotate(-90 1.03662 6.36415)" fill="#342E2E"/>
<rect x="1.03662" y="13.6358" width="0.807943" height="0.807943" transform="rotate(-90 1.03662 13.6358)" fill="#342E2E"/>
<rect x="0.228516" y="12.8279" width="6.46354" height="0.807943" transform="rotate(-90 0.228516 12.8279)" fill="#342E2E"/>
<rect x="13.9637" y="12.8279" width="6.46354" height="0.807943" transform="rotate(-90 13.9637 12.8279)" fill="#342E2E"/>
<rect x="13.1555" y="6.36415" width="0.807943" height="0.807943" transform="rotate(-90 13.1555 6.36415)" fill="#342E2E"/>
<rect x="13.1555" y="13.6358" width="0.807943" height="0.807943" transform="rotate(-90 13.1555 13.6358)" fill="#342E2E"/>
<rect x="1.84418" y="14.4436" width="0.807943" height="11.3112" transform="rotate(-90 1.84418 14.4436)" fill="#342E2E"/>
<rect x="5.07599" y="10.4043" width="3.23177" height="0.807943" transform="rotate(-90 5.07599 10.4043)" fill="#342E2E"/>
<rect x="9.11542" y="10.4043" width="3.23177" height="0.807943" transform="rotate(-90 9.11542 10.4043)" fill="#342E2E"/>
<rect x="3.45944" y="0.708298" width="0.807943" height="0.807943" fill="#342E2E"/>
<rect x="10.7314" y="0.708298" width="0.807943" height="0.807943" fill="#342E2E"/>
<rect x="2.65189" y="1.51613" width="0.807943" height="0.807943" fill="#342E2E"/>
<rect x="11.5389" y="1.51613" width="0.807943" height="0.807943" fill="#342E2E"/>
<rect x="1.84378" y="2.32425" width="0.807943" height="3.23177" fill="#342E2E"/>
<rect x="4.26755" y="1.51613" width="0.807943" height="3.23177" fill="#342E2E"/>
<rect x="12.347" y="2.32425" width="0.807943" height="3.23177" fill="#342E2E"/>
<rect x="9.92322" y="1.51613" width="0.807943" height="3.23177" fill="#342E2E"/>
<rect x="5.07568" y="4.74802" width="0.807943" height="4.84766" transform="rotate(-90 5.07568 4.74802)" fill="#342E2E"/>
<rect x="5.88608" y="18.4836" width="0.807943" height="0.807943" fill="#342E2E"/>
<rect x="8.30984" y="18.4836" width="0.807943" height="0.807943" fill="#342E2E"/>
<rect x="9.11798" y="17.6758" width="0.807943" height="0.807943" fill="#342E2E"/>
<rect x="5.07852" y="17.6758" width="0.807943" height="0.807943" fill="#342E2E"/>
<rect x="6.69418" y="17.6758" width="1.61589" height="0.807943" fill="#342E2E"/>
<rect x="9.92609" y="17.6758" width="3.23177" height="0.807943" transform="rotate(-90 9.92609 17.6758)" fill="#342E2E"/>
<rect x="4.27042" y="17.6758" width="3.23177" height="0.807943" transform="rotate(-90 4.27042 17.6758)" fill="#342E2E"/>
</svg>
